<svg xmlns="http://www.w3.org/2000/svg" xmlns:xlink="http://www.w3.org/1999/xlink" width="500" zoomAndPan="magnify" viewBox="0 0 375 374.999991" height="500" preserveAspectRatio="xMidYMid meet" version="1.0"><path fill="#15b87a" d="M 233.230469 0 C 237.640625 0 243.15625 0 247.566406 1.101562 C 243.15625 0 237.640625 0 233.230469 0 L 144.996094 0 C 140.582031 0 135.066406 0 130.65625 1.101562 C 135.066406 0 140.582031 0 144.996094 0 Z M 233.230469 0 " fill-opacity="1" fill-rule="nonzero"/><path fill="#15b87a" d="M 247.566406 1.101562 C 243.15625 0 237.640625 0 233.230469 0 L 144.996094 0 C 140.582031 0 135.066406 0 130.65625 1.101562 C 57.863281 7.71875 1.613281 69.484375 1.613281 143.382812 L 1.613281 231.617188 C 1.613281 307.71875 61.171875 370.589844 137.273438 375 L 240.949219 375 C 317.054688 370.589844 376.613281 307.71875 376.613281 231.617188 L 376.613281 143.382812 C 376.613281 69.484375 320.363281 7.71875 247.566406 1.101562 Z M 339.113281 231.617188 C 339.113281 290.074219 291.6875 337.5 233.230469 337.5 L 144.996094 337.5 C 86.539062 337.5 39.113281 290.074219 39.113281 231.617188 L 39.113281 143.382812 C 39.113281 84.925781 86.539062 37.5 144.996094 37.5 L 233.230469 37.5 C 291.6875 37.5 339.113281 84.925781 339.113281 143.382812 Z M 339.113281 231.617188 " fill-opacity="1" fill-rule="nonzero"/><path fill="#15b87a" d="M 271.832031 206.25 C 268.523438 204.042969 264.113281 201.839844 260.804688 201.839844 C 254.1875 201.839844 248.671875 205.148438 244.257812 209.558594 C 231.023438 226.101562 210.066406 236.03125 189.113281 237.132812 C 167.054688 236.03125 147.199219 226.101562 133.964844 209.558594 C 127.347656 200.734375 115.214844 199.632812 106.390625 206.25 C 98.671875 212.867188 96.464844 223.898438 101.980469 232.71875 C 122.9375 259.191406 154.921875 274.632812 188.007812 275.734375 C 222.199219 274.632812 253.082031 259.191406 274.039062 232.71875 C 277.347656 228.308594 278.449219 223.898438 277.347656 218.382812 C 278.449219 213.96875 276.246094 208.457031 271.832031 206.25 Z M 271.832031 206.25 " fill-opacity="1" fill-rule="nonzero"/></svg>