<svg xmlns="http://www.w3.org/2000/svg" xmlns:xlink="http://www.w3.org/1999/xlink" width="500" zoomAndPan="magnify" viewBox="0 0 375 374.999991" height="500" preserveAspectRatio="xMidYMid meet" version="1.0"><defs><g/><clipPath id="1079b76f0b"><path d="M 39 131.589844 L 69 131.589844 L 69 132 L 39 132 Z M 39 131.589844 " clip-rule="nonzero"/></clipPath><clipPath id="155bfa392c"><path d="M 8 131.589844 L 99.367188 131.589844 L 99.367188 223.089844 L 8 223.089844 Z M 8 131.589844 " clip-rule="nonzero"/></clipPath></defs><g clip-path="url(#1079b76f0b)"><path fill="#ffffff" d="M 64.816406 131.589844 C 65.894531 131.589844 67.238281 131.589844 68.316406 131.859375 C 67.238281 131.589844 65.894531 131.589844 64.816406 131.589844 L 43.273438 131.589844 C 42.195312 131.589844 40.847656 131.589844 39.773438 131.859375 C 40.847656 131.589844 42.195312 131.589844 43.273438 131.589844 Z M 64.816406 131.589844 " fill-opacity="1" fill-rule="nonzero"/></g><g clip-path="url(#155bfa392c)"><path fill="#ffffff" d="M 68.316406 131.859375 C 67.238281 131.589844 65.894531 131.589844 64.816406 131.589844 L 43.273438 131.589844 C 42.195312 131.589844 40.847656 131.589844 39.773438 131.859375 C 22 133.472656 8.265625 148.554688 8.265625 166.597656 L 8.265625 188.140625 C 8.265625 206.71875 22.808594 222.070312 41.386719 223.148438 L 66.699219 223.148438 C 85.28125 222.070312 99.824219 206.71875 99.824219 188.140625 L 99.824219 166.597656 C 99.824219 148.554688 86.089844 133.472656 68.316406 131.859375 Z M 90.667969 188.140625 C 90.667969 202.410156 79.089844 213.992188 64.816406 213.992188 L 43.273438 213.992188 C 29 213.992188 17.421875 202.410156 17.421875 188.140625 L 17.421875 166.597656 C 17.421875 152.324219 29 140.746094 43.273438 140.746094 L 64.816406 140.746094 C 79.089844 140.746094 90.667969 152.324219 90.667969 166.597656 Z M 90.667969 188.140625 " fill-opacity="1" fill-rule="nonzero"/></g><path fill="#ffffff" d="M 74.242188 181.945312 C 73.433594 181.40625 72.355469 180.867188 71.546875 180.867188 C 69.933594 180.867188 68.585938 181.675781 67.507812 182.753906 C 64.277344 186.792969 59.160156 189.214844 54.042969 189.484375 C 48.660156 189.214844 43.8125 186.792969 40.578125 182.753906 C 38.964844 180.597656 36.003906 180.328125 33.847656 181.945312 C 31.960938 183.5625 31.425781 186.253906 32.769531 188.410156 C 37.886719 194.871094 45.695312 198.640625 53.773438 198.910156 C 62.125 198.640625 69.664062 194.871094 74.78125 188.410156 C 75.585938 187.332031 75.855469 186.253906 75.585938 184.90625 C 75.855469 183.832031 75.316406 182.484375 74.242188 181.945312 Z M 74.242188 181.945312 " fill-opacity="1" fill-rule="nonzero"/><g fill="#0a2046" fill-opacity="1"><g transform="translate(107.02992, 173.895375)"><g><path d="M 6.578125 -37.40625 L 16 -37.359375 C 20.925781 -37.359375 25.257812 -35.582031 29 -32.03125 C 32.738281 -28.476562 34.609375 -24.109375 34.609375 -18.921875 C 34.609375 -13.742188 32.78125 -9.300781 29.125 -5.59375 C 25.476562 -1.894531 21.050781 -0.046875 15.84375 -0.046875 L 6.53125 -0.046875 C 4.457031 -0.046875 3.164062 -0.472656 2.65625 -1.328125 C 2.238281 -2.035156 2.03125 -3.125 2.03125 -4.59375 L 2.03125 -32.921875 C 2.03125 -33.742188 2.054688 -34.335938 2.109375 -34.703125 C 2.160156 -35.078125 2.320312 -35.519531 2.59375 -36.03125 C 3.070312 -36.945312 4.398438 -37.40625 6.578125 -37.40625 Z M 16 -9.078125 C 18.445312 -9.078125 20.65625 -9.984375 22.625 -11.796875 C 24.601562 -13.617188 25.59375 -15.90625 25.59375 -18.65625 C 25.59375 -21.40625 24.628906 -23.707031 22.703125 -25.5625 C 20.785156 -27.414062 18.535156 -28.34375 15.953125 -28.34375 L 11.0625 -28.34375 L 11.0625 -9.078125 Z M 16 -9.078125 "/></g></g></g><g fill="#0a2046" fill-opacity="1"><g transform="translate(143.674187, 173.895375)"><g><path d="M 20.28125 -26.546875 C 20.925781 -26.347656 21.460938 -26 21.890625 -25.5 C 22.316406 -25.007812 22.53125 -24.222656 22.53125 -23.140625 C 22.53125 -22.054688 22.207031 -20.867188 21.5625 -19.578125 C 20.914062 -18.285156 19.976562 -17.640625 18.75 -17.640625 C 18.144531 -17.640625 17.5625 -17.773438 17 -18.046875 C 16.4375 -18.316406 15.695312 -18.453125 14.78125 -18.453125 C 13.863281 -18.453125 13.003906 -18.128906 12.203125 -17.484375 C 11.410156 -16.835938 11.015625 -16.054688 11.015625 -15.140625 L 11.015625 -4.4375 C 11.015625 -3.65625 10.988281 -3.066406 10.9375 -2.671875 C 10.882812 -2.285156 10.722656 -1.835938 10.453125 -1.328125 C 9.941406 -0.441406 8.613281 0 6.46875 0 C 4.84375 0 3.671875 -0.285156 2.953125 -0.859375 C 2.410156 -1.335938 2.101562 -2.070312 2.03125 -3.0625 C 2.03125 -3.394531 2.03125 -3.882812 2.03125 -4.53125 L 2.03125 -22.421875 C 2.03125 -23.203125 2.054688 -23.785156 2.109375 -24.171875 C 2.160156 -24.566406 2.304688 -25.003906 2.546875 -25.484375 C 3.023438 -26.398438 4.351562 -26.859375 6.53125 -26.859375 C 8.5625 -26.859375 9.832031 -26.46875 10.34375 -25.6875 C 10.71875 -25.144531 10.90625 -24.582031 10.90625 -24 C 11.070312 -24.238281 11.316406 -24.523438 11.640625 -24.859375 C 11.960938 -25.203125 12.648438 -25.660156 13.703125 -26.234375 C 14.765625 -26.816406 15.691406 -27.109375 16.484375 -27.109375 C 17.285156 -27.109375 17.957031 -27.066406 18.5 -26.984375 C 19.039062 -26.898438 19.632812 -26.753906 20.28125 -26.546875 Z M 20.28125 -26.546875 "/></g></g></g><g fill="#0a2046" fill-opacity="1"><g transform="translate(167.729996, 173.895375)"><g><path d="M 9.9375 -8.40625 C 10.519531 -7.832031 10.8125 -6.644531 10.8125 -4.84375 L 10.8125 -4.640625 C 10.8125 -3.828125 10.785156 -3.222656 10.734375 -2.828125 C 10.679688 -2.441406 10.5 -1.972656 10.1875 -1.421875 C 9.675781 -0.441406 8.394531 0.046875 6.34375 0.046875 C 4.289062 0.046875 2.929688 -0.273438 2.265625 -0.921875 C 1.609375 -1.566406 1.28125 -2.789062 1.28125 -4.59375 L 1.28125 -4.796875 C 1.28125 -5.578125 1.300781 -6.171875 1.34375 -6.578125 C 1.394531 -6.984375 1.554688 -7.441406 1.828125 -7.953125 C 2.335938 -8.972656 3.617188 -9.484375 5.671875 -9.484375 C 7.734375 -9.484375 9.15625 -9.125 9.9375 -8.40625 Z M 9.9375 -8.40625 "/></g></g></g><g fill="#0a2046" fill-opacity="1"><g transform="translate(107.02992, 218.208442)"><g><path d="M 23.59375 -34.703125 L 37.359375 -6.265625 C 37.929688 -5.109375 38.21875 -4.242188 38.21875 -3.671875 C 38.21875 -2.441406 37.234375 -1.335938 35.265625 -0.359375 C 34.109375 0.222656 33.195312 0.515625 32.53125 0.515625 C 31.875 0.515625 31.332031 0.359375 30.90625 0.046875 C 30.488281 -0.253906 30.1875 -0.570312 30 -0.90625 C 29.8125 -1.25 29.546875 -1.765625 29.203125 -2.453125 L 26.546875 -7.953125 L 12.4375 -7.953125 L 9.78125 -2.453125 C 9.445312 -1.765625 9.1875 -1.269531 9 -0.96875 C 8.8125 -0.664062 8.503906 -0.351562 8.078125 -0.03125 C 7.648438 0.289062 7.101562 0.453125 6.4375 0.453125 C 5.78125 0.453125 4.875 0.164062 3.71875 -0.40625 C 1.75 -1.351562 0.765625 -2.441406 0.765625 -3.671875 C 0.765625 -4.242188 1.050781 -5.109375 1.625 -6.265625 L 15.390625 -34.765625 C 15.765625 -35.546875 16.332031 -36.171875 17.09375 -36.640625 C 17.863281 -37.117188 18.671875 -37.359375 19.515625 -37.359375 C 21.347656 -37.359375 22.707031 -36.472656 23.59375 -34.703125 Z M 19.46875 -22.484375 L 16.109375 -15.5 L 22.890625 -15.5 Z M 19.46875 -22.484375 "/></g></g></g><g fill="#0a2046" fill-opacity="1"><g transform="translate(146.783082, 218.208442)"><g><path d="M 17.734375 -26.8125 C 20.078125 -26.8125 21.453125 -26.164062 21.859375 -24.875 C 22.066406 -24.226562 22.171875 -23.378906 22.171875 -22.328125 C 22.171875 -21.273438 22.0625 -20.429688 21.84375 -19.796875 C 21.625 -19.171875 21.273438 -18.722656 20.796875 -18.453125 C 20.078125 -18.046875 19.039062 -17.84375 17.6875 -17.84375 L 14.421875 -18.046875 L 14.421875 -4.390625 C 14.421875 -3.097656 14.257812 -2.132812 13.9375 -1.5 C 13.613281 -0.875 13.117188 -0.457031 12.453125 -0.25 C 11.796875 -0.0507812 10.941406 0.046875 9.890625 0.046875 C 8.835938 0.046875 7.992188 -0.0625 7.359375 -0.28125 C 6.734375 -0.5 6.285156 -0.851562 6.015625 -1.34375 C 5.742188 -1.84375 5.582031 -2.296875 5.53125 -2.703125 C 5.476562 -3.109375 5.453125 -3.703125 5.453125 -4.484375 L 5.453125 -17.984375 L 3.625 -17.984375 C 2.738281 -18.054688 2.109375 -18.265625 1.734375 -18.609375 C 1.085938 -19.253906 0.765625 -20.492188 0.765625 -22.328125 C 0.765625 -25.109375 1.765625 -26.5 3.765625 -26.5 L 5.453125 -26.5 L 5.453125 -29.203125 C 5.453125 -31.816406 6.382812 -34.1875 8.25 -36.3125 C 10.125 -38.4375 12.828125 -39.5 16.359375 -39.5 C 17.140625 -39.5 17.722656 -39.472656 18.109375 -39.421875 C 18.503906 -39.367188 18.957031 -39.207031 19.46875 -38.9375 C 20.382812 -38.5 20.84375 -37.191406 20.84375 -35.015625 C 20.84375 -33.378906 20.554688 -32.207031 19.984375 -31.5 C 19.503906 -30.957031 18.753906 -30.648438 17.734375 -30.578125 C 17.429688 -30.578125 16.957031 -30.578125 16.3125 -30.578125 C 15.050781 -30.578125 14.421875 -30.15625 14.421875 -29.3125 L 14.421875 -26.5 Z M 17.734375 -26.8125 "/></g></g></g><g fill="#0a2046" fill-opacity="1"><g transform="translate(170.482127, 218.208442)"><g><path d="M 19.46875 -24 C 19.675781 -25.90625 21.019531 -26.859375 23.5 -26.859375 C 24.820312 -26.859375 25.804688 -26.753906 26.453125 -26.546875 C 27.097656 -26.347656 27.546875 -25.992188 27.796875 -25.484375 C 28.054688 -24.972656 28.210938 -24.519531 28.265625 -24.125 C 28.316406 -23.738281 28.34375 -23.15625 28.34375 -22.375 L 28.34375 -4.53125 C 28.34375 -3.75 28.316406 -3.160156 28.265625 -2.765625 C 28.210938 -2.378906 28.066406 -1.929688 27.828125 -1.421875 C 27.347656 -0.546875 26.179688 -0.109375 24.328125 -0.109375 C 22.484375 -0.109375 21.242188 -0.335938 20.609375 -0.796875 C 19.984375 -1.253906 19.617188 -1.921875 19.515625 -2.796875 C 18.265625 -1.003906 16.164062 -0.109375 13.21875 -0.109375 C 10.28125 -0.109375 7.554688 -1.445312 5.046875 -4.125 C 2.535156 -6.8125 1.28125 -9.929688 1.28125 -13.484375 C 1.28125 -17.035156 2.546875 -20.144531 5.078125 -22.8125 C 7.609375 -25.476562 10.382812 -26.8125 13.40625 -26.8125 C 14.5625 -26.8125 15.613281 -26.609375 16.5625 -26.203125 C 17.507812 -25.796875 18.171875 -25.410156 18.546875 -25.046875 C 18.921875 -24.691406 19.226562 -24.34375 19.46875 -24 Z M 10.1875 -13.40625 C 10.1875 -12.28125 10.628906 -11.265625 11.515625 -10.359375 C 12.398438 -9.460938 13.46875 -9.015625 14.71875 -9.015625 C 15.976562 -9.015625 17.023438 -9.472656 17.859375 -10.390625 C 18.691406 -11.316406 19.109375 -12.332031 19.109375 -13.4375 C 19.109375 -14.539062 18.707031 -15.566406 17.90625 -16.515625 C 17.113281 -17.460938 16.046875 -17.9375 14.703125 -17.9375 C 13.359375 -17.9375 12.269531 -17.460938 11.4375 -16.515625 C 10.601562 -15.566406 10.1875 -14.53125 10.1875 -13.40625 Z M 10.1875 -13.40625 "/></g></g></g><g fill="#0a2046" fill-opacity="1"><g transform="translate(201.622126, 218.208442)"><g><path d="M 16.96875 -26.859375 C 20.363281 -26.859375 23.191406 -25.554688 25.453125 -22.953125 C 27.710938 -20.359375 28.84375 -17.191406 28.84375 -13.453125 L 28.84375 -4.484375 C 28.84375 -3.703125 28.816406 -3.113281 28.765625 -2.71875 C 28.722656 -2.332031 28.582031 -1.898438 28.34375 -1.421875 C 27.863281 -0.503906 26.535156 -0.046875 24.359375 -0.046875 C 21.953125 -0.046875 20.5625 -0.675781 20.1875 -1.9375 C 19.976562 -2.507812 19.875 -3.375 19.875 -4.53125 L 19.875 -13.5 C 19.875 -14.894531 19.472656 -15.984375 18.671875 -16.765625 C 17.878906 -17.546875 16.8125 -17.9375 15.46875 -17.9375 C 14.125 -17.9375 13.035156 -17.53125 12.203125 -16.71875 C 11.367188 -15.90625 10.953125 -14.832031 10.953125 -13.5 L 10.953125 -4.484375 C 10.953125 -3.703125 10.925781 -3.113281 10.875 -2.71875 C 10.832031 -2.332031 10.671875 -1.898438 10.390625 -1.421875 C 9.953125 -0.503906 8.644531 -0.046875 6.46875 -0.046875 C 4.332031 -0.046875 3.023438 -0.503906 2.546875 -1.421875 C 2.304688 -1.929688 2.160156 -2.378906 2.109375 -2.765625 C 2.054688 -3.160156 2.03125 -3.75 2.03125 -4.53125 L 2.03125 -22.578125 C 2.03125 -23.328125 2.054688 -23.894531 2.109375 -24.28125 C 2.160156 -24.675781 2.320312 -25.113281 2.59375 -25.59375 C 3.070312 -26.4375 4.382812 -26.859375 6.53125 -26.859375 C 8.601562 -26.859375 9.875 -26.46875 10.34375 -25.6875 C 10.6875 -25.113281 10.859375 -24.414062 10.859375 -23.59375 C 10.992188 -23.832031 11.296875 -24.171875 11.765625 -24.609375 C 12.242188 -25.054688 12.707031 -25.414062 13.15625 -25.6875 C 14.3125 -26.46875 15.582031 -26.859375 16.96875 -26.859375 Z M 16.96875 -26.859375 "/></g></g></g><g fill="#0a2046" fill-opacity="1"><g transform="translate(233.271786, 218.208442)"><g><path d="M 20.046875 -38.046875 C 20.304688 -38.535156 20.757812 -38.882812 21.40625 -39.09375 C 22.050781 -39.300781 22.910156 -39.40625 23.984375 -39.40625 C 25.054688 -39.40625 25.910156 -39.300781 26.546875 -39.09375 C 27.191406 -38.882812 27.640625 -38.523438 27.890625 -38.015625 C 28.148438 -37.515625 28.304688 -37.066406 28.359375 -36.671875 C 28.410156 -36.273438 28.4375 -35.6875 28.4375 -34.90625 L 28.4375 -4.484375 C 28.4375 -3.703125 28.410156 -3.113281 28.359375 -2.71875 C 28.304688 -2.332031 28.144531 -1.898438 27.875 -1.421875 C 27.363281 -0.503906 25.925781 -0.046875 23.5625 -0.046875 C 21.207031 -0.046875 19.894531 -0.878906 19.625 -2.546875 C 18.195312 -0.921875 16.207031 -0.109375 13.65625 -0.109375 C 10.601562 -0.109375 7.816406 -1.441406 5.296875 -4.109375 C 2.785156 -6.773438 1.53125 -9.878906 1.53125 -13.421875 C 1.53125 -16.972656 2.796875 -20.09375 5.328125 -22.78125 C 7.859375 -25.46875 10.632812 -26.8125 13.65625 -26.8125 C 16.175781 -26.8125 18.128906 -25.960938 19.515625 -24.265625 L 19.515625 -34.96875 C 19.515625 -35.75 19.539062 -36.332031 19.59375 -36.71875 C 19.644531 -37.113281 19.796875 -37.554688 20.046875 -38.046875 Z M 11.765625 -10.34375 C 12.648438 -9.425781 13.722656 -8.96875 14.984375 -8.96875 C 16.242188 -8.96875 17.289062 -9.425781 18.125 -10.34375 C 18.957031 -11.257812 19.375 -12.269531 19.375 -13.375 C 19.375 -14.476562 18.972656 -15.503906 18.171875 -16.453125 C 17.367188 -17.410156 16.285156 -17.890625 14.921875 -17.890625 C 13.566406 -17.890625 12.484375 -17.421875 11.671875 -16.484375 C 10.859375 -15.554688 10.453125 -14.53125 10.453125 -13.40625 C 10.453125 -12.28125 10.890625 -11.257812 11.765625 -10.34375 Z M 11.765625 -10.34375 "/></g></g></g><g fill="#0a2046" fill-opacity="1"><g transform="translate(264.513721, 218.208442)"><g><path d="M 2.03125 -22.375 C 2.03125 -23.15625 2.054688 -23.738281 2.109375 -24.125 C 2.160156 -24.519531 2.304688 -24.972656 2.546875 -25.484375 C 3.023438 -26.367188 4.351562 -26.8125 6.53125 -26.8125 C 8.15625 -26.8125 9.304688 -26.519531 9.984375 -25.9375 C 10.566406 -25.46875 10.875 -24.738281 10.90625 -23.75 C 10.9375 -23.40625 10.953125 -22.910156 10.953125 -22.265625 L 10.953125 -4.4375 C 10.953125 -3.65625 10.925781 -3.066406 10.875 -2.671875 C 10.832031 -2.285156 10.671875 -1.835938 10.390625 -1.328125 C 9.953125 -0.441406 8.644531 0 6.46875 0 C 4.332031 0 3.023438 -0.457031 2.546875 -1.375 C 2.304688 -1.882812 2.160156 -2.328125 2.109375 -2.703125 C 2.054688 -3.078125 2.03125 -3.671875 2.03125 -4.484375 Z M 10.421875 -31.828125 C 10.171875 -31.335938 9.722656 -30.988281 9.078125 -30.78125 C 8.429688 -30.582031 7.570312 -30.484375 6.5 -30.484375 C 5.425781 -30.484375 4.566406 -30.582031 3.921875 -30.78125 C 3.273438 -30.988281 2.820312 -31.347656 2.5625 -31.859375 C 2.3125 -32.367188 2.160156 -32.816406 2.109375 -33.203125 C 2.054688 -33.597656 2.03125 -34.1875 2.03125 -34.96875 C 2.03125 -35.75 2.054688 -36.332031 2.109375 -36.71875 C 2.160156 -37.113281 2.304688 -37.546875 2.546875 -38.015625 C 3.023438 -38.941406 4.351562 -39.40625 6.53125 -39.40625 C 8.664062 -39.40625 9.953125 -38.941406 10.390625 -38.015625 C 10.671875 -37.515625 10.832031 -37.066406 10.875 -36.671875 C 10.925781 -36.273438 10.953125 -35.6875 10.953125 -34.90625 C 10.953125 -34.125 10.925781 -33.535156 10.875 -33.140625 C 10.832031 -32.753906 10.679688 -32.316406 10.421875 -31.828125 Z M 10.421875 -31.828125 "/></g></g></g><g fill="#0a2046" fill-opacity="1"><g transform="translate(278.274515, 218.208442)"><g><path d="M 27.015625 -26.546875 C 29.015625 -25.671875 30.015625 -24.601562 30.015625 -23.34375 C 30.015625 -22.726562 29.878906 -22.148438 29.609375 -21.609375 C 29.335938 -21.066406 29.203125 -20.78125 29.203125 -20.75 L 15.84375 9.125 C 15.570312 9.769531 15.34375 10.257812 15.15625 10.59375 C 14.976562 10.9375 14.679688 11.257812 14.265625 11.5625 C 13.859375 11.875 13.347656 12.03125 12.734375 12.03125 C 12.128906 12.03125 11.234375 11.773438 10.046875 11.265625 C 8.035156 10.378906 7.03125 9.328125 7.03125 8.109375 C 7.03125 7.285156 8.660156 3.394531 11.921875 -3.5625 L 1.78125 -20.640625 C 1.101562 -21.765625 0.765625 -22.597656 0.765625 -23.140625 C 0.765625 -24.222656 1.679688 -25.3125 3.515625 -26.40625 C 4.671875 -27.082031 5.570312 -27.421875 6.21875 -27.421875 C 6.863281 -27.421875 7.390625 -27.285156 7.796875 -27.015625 C 8.203125 -26.742188 8.5 -26.460938 8.6875 -26.171875 C 8.875 -25.878906 9.804688 -24.296875 11.484375 -21.421875 C 13.171875 -18.554688 14.78125 -15.882812 16.3125 -13.40625 C 16.476562 -13.945312 17.394531 -16.039062 19.0625 -19.6875 C 20.726562 -23.34375 21.617188 -25.289062 21.734375 -25.53125 C 21.859375 -25.769531 22.054688 -26.0625 22.328125 -26.40625 C 22.765625 -26.976562 23.378906 -27.265625 24.171875 -27.265625 C 24.972656 -27.265625 25.921875 -27.023438 27.015625 -26.546875 Z M 27.015625 -26.546875 "/></g></g></g><g fill="#0a2046" fill-opacity="1"><g transform="translate(309.822248, 218.208442)"><g><path d="M 27.9375 -16.640625 C 27.9375 -14.546875 27.414062 -13 26.375 -12 C 25.34375 -11 24.195312 -10.5 22.9375 -10.5 L 10.859375 -10.5 C 10.859375 -9.550781 11.414062 -8.753906 12.53125 -8.109375 C 13.65625 -7.460938 14.78125 -7.140625 15.90625 -7.140625 C 17.875 -7.140625 19.421875 -7.34375 20.546875 -7.75 L 21.09375 -7.953125 C 21.914062 -8.328125 22.597656 -8.515625 23.140625 -8.515625 C 24.222656 -8.515625 25.15625 -7.75 25.9375 -6.21875 C 26.382812 -5.300781 26.609375 -4.519531 26.609375 -3.875 C 26.609375 -0.851562 22.988281 0.65625 15.75 0.65625 C 13.238281 0.65625 11.003906 0.222656 9.046875 -0.640625 C 7.085938 -1.503906 5.566406 -2.648438 4.484375 -4.078125 C 2.347656 -6.828125 1.28125 -9.898438 1.28125 -13.296875 C 1.28125 -17.578125 2.660156 -21 5.421875 -23.5625 C 8.191406 -26.132812 11.648438 -27.421875 15.796875 -27.421875 C 20.523438 -27.421875 23.992188 -25.753906 26.203125 -22.421875 C 27.359375 -20.660156 27.9375 -18.734375 27.9375 -16.640625 Z M 17.171875 -15.140625 C 18.460938 -15.140625 19.109375 -15.679688 19.109375 -16.765625 C 19.109375 -17.546875 18.8125 -18.175781 18.21875 -18.65625 C 17.625 -19.132812 16.773438 -19.375 15.671875 -19.375 C 14.566406 -19.375 13.46875 -18.921875 12.375 -18.015625 C 11.289062 -17.117188 10.75 -16.160156 10.75 -15.140625 Z M 17.171875 -15.140625 "/></g></g></g><g fill="#0a2046" fill-opacity="1"><g transform="translate(339.790037, 218.208442)"><g><path d="M 29.109375 -26.25 C 30.867188 -25.195312 31.75 -24.078125 31.75 -22.890625 C 31.75 -22.203125 31.410156 -21.265625 30.734375 -20.078125 L 20.1875 -1.984375 C 19.84375 -1.410156 19.296875 -0.894531 18.546875 -0.4375 C 17.804688 0.0195312 17.066406 0.25 16.328125 0.25 C 15.597656 0.25 14.898438 0.0703125 14.234375 -0.28125 C 13.578125 -0.632812 13.113281 -1 12.84375 -1.375 L 12.390625 -1.9375 L 1.78125 -20.078125 C 1.101562 -21.203125 0.765625 -22.117188 0.765625 -22.828125 C 0.765625 -24.054688 1.648438 -25.195312 3.421875 -26.25 C 4.710938 -27 5.726562 -27.375 6.46875 -27.375 C 7.21875 -27.375 7.804688 -27.144531 8.234375 -26.6875 C 8.660156 -26.226562 9.109375 -25.539062 9.578125 -24.625 L 16.265625 -11.78125 L 22.9375 -24.625 C 23.3125 -25.269531 23.59375 -25.734375 23.78125 -26.015625 C 23.96875 -26.304688 24.265625 -26.59375 24.671875 -26.875 C 25.078125 -27.164062 25.617188 -27.3125 26.296875 -27.3125 C 26.972656 -27.3125 27.910156 -26.957031 29.109375 -26.25 Z M 29.109375 -26.25 "/></g></g></g></svg>